<svg xmlns="http://www.w3.org/2000/svg">

  <symbol id="logo" viewBox="0 0 874 1021">
    <path
      d="m758.6 3.2c-14.9 10.6-32.2 22-39.1 26.1-15.2 8.8-55 27.5-92 43.2-95.3 40.5-116.8 51.5-133.6 68.4-12.6 12.6-19.8 24.6-47.3 78.6-3.1 6.1-3.2 5.6-1.1-14.5 1.7-16.9 2.8-25.4 5-36.5 0.8-4.4 1.5-8.6 1.5-9.3 0-1.5-23.3 14.1-37 24.6-12.3 9.5-31.8 26.2-42.1 36-22.8 21.6-30.7 38.3-44.4 93.3-3.6 14.5-6.9 27.3-7.4 28.4-1.4 3-1.3-4 0.4-26.5 1.7-22.4 3.6-37.3 7-53.9 1.3-6.4 2.2-11.8 1.9-12-0.9-1-25.6 25.3-32.8 34.9-8.6 11.6-22.7 32.7-27 40.5-6.4 11.6-12.2 29.6-15 46.5-1.5 9-5.6 60.1-5.6 69.6 0 2.4-0.4 4.4-0.8 4.4-0.9 0-6.6-22.8-8.7-34.9-2-11.7-3.8-33.6-3-37.1 2.9-13.1-16.3 20.9-22.5 40-3.9 11.9-6 27-6 42.6 0 12.8 1.9 34 3.9 44.3 2 9.7 1.4 10.9-2 4.5-1.7-3.2-4.6-7.8-6.5-10.1-6.2-7.5-24.7-14.8-28.8-11.4-1.2 1-0.6 2 3.6 5.9 14.1 13.2 21.8 31.9 21.8 53 0 18.3-5.2 33.9-22.6 69.2-13.3 27-24.2 46.1-43.9 77-23 36.2-20.8 30.4-21.5 56.5-0.3 12.1-0.9 22.7-1.4 23.6-1.5 3.3-5.4 3.9-25.4 3.9-11 0-21.4 0.5-23.6 1.1-2.3 0.6-5.7 2.9-8.6 5.8-5.8 5.8-7.5 11.8-6.8 23.9 0.5 9.5 2.7 13.8 8.3 16.8 4 2.1 4 2.1 3.9 8-0.2 13.5-8.8 21.5-35.6 32.9-10.7 4.5-16.8 9.7-20.5 17.3l-2.8 5.7-0.3 56.4c-0.2 50.6-0.1 57 1.4 61.8 2.1 6.7 7.5 13 14.5 16.8l5.4 3h98c94.4 0 98.2-0.1 103-1.9 6.5-2.6 14.7-10.3 17.6-16.9l2.4-5.2v-115l-2.5-5c-4.7-9.6-10.3-13.6-30.5-21.9-15.1-6.3-20.8-10.5-24.5-17.9-2.7-5.7-3.5-9.2-3.1-14 0-0.9 2.4-3.1 5.1-4.8 7.4-4.5 8.5-7.2 8.5-20.4 0-12.5-1.7-17.3-7.7-21.8-5.7-4.2-8.9-4.7-31.5-4.7-18.2 0-21.4-0.2-21.9-1.5-1-2.6 3.6-13.2 7.8-18 2.2-2.4 9-7.8 15.2-11.9 8.7-5.7 11.9-8.4 13.8-11.8 1.5-2.4 5.9-13.8 9.8-25.3 18.2-52.9 31-77.5 50.5-97.1 21.3-21.5 45.7-32.2 80.4-35.4 6.3-0.6 14.1-0.8 17.5-0.4l6.1 0.7-1.8-2.1c-3-3.3-15-9.1-23.4-11.3-5.2-1.3-11.6-2-19.5-2.2-6.4-0.1-11.4-0.5-11-0.9 1.1-1 11.8-3.5 20.2-4.7 4.1-0.6 17-1.8 28.5-2.6 28.2-2 39.1-4.6 54.2-13.1 10.4-5.8 25.3-18.9 25.3-22.2 0-0.5-2-0.4-4.7 0.3-13.4 3.5-45 6.4-69.3 6.5-6.9 0-17.4 0.7-23.4 1.5-6.1 0.8-11.1 1.3-11.3 1.1-0.5-0.4 12.2-6.5 26.2-12.6 15-6.5 26.7-10.1 55.5-17.2 39.3-9.6 51.3-14.1 69.4-26.2 17-11.3 40.6-35.5 60.8-62.1 4.2-5.6 15.4-21.4 17.2-24.3 0.7-1.2-7.3-1.3-47.5-0.9-44 0.4-49.5 0.7-59.9 2.6-13.6 2.5-26.7 6.1-36.9 10.2-4.1 1.6-7.6 2.8-7.8 2.6-1.1-1.2 19.3-12.1 32-17.1 8.3-3.3 26.3-8.1 37.7-10.1 4.7-0.8 20.7-2.8 35.5-4.5 40.6-4.7 52.8-7.1 71.1-14.2 25-9.6 47.7-28 68.2-55.4 7.1-9.4 20.5-30.4 19.9-31.1-0.2-0.1-3.5 0.9-7.5 2.2-15.8 5.4-22.3 6-52.2 5.5-15.1-0.2-41.7-0.5-59-0.5h-31.5l21.5-4.2c13.4-2.6 33.6-5.6 53.5-7.8 36.5-4.1 47.6-6.1 63.6-11.1 34.2-10.8 55.7-28.3 80.4-65.4 8.2-12.4 17.6-28.5 18.9-32.6l0.7-2.1-6.8 1.8c-9.6 2.7-27 5.7-39.8 6.9-13.5 1.2-25.6 1.3-23.5 0.1 0.8-0.5 12-3.9 24.9-7.5 43.1-12.3 54.6-18.4 65.2-34.6 14.9-22.7 23.1-53.8 23.3-89 0.1-6.9-0.3-14.2-0.7-16.2-1.6-7.5-5.8-8.7-13.1-3.6zm-61.1 80.6c-0.6 0.5-7.5 4.8-15.5 9.7-47.1 28.8-103.5 66.3-139.1 92.6-48.1 35.4-77.4 60.9-114.5 99.5-42.5 44.1-71.8 79.5-110.4 133.4-36.6 51-97.6 152.7-140.5 234-20.9 39.7-36.5 66.5-37.3 64.1-0.2-0.6 4.3-10.9 10.1-22.9 5.8-11.9 20-41.5 31.6-65.7 19-39.5 48.2-98.4 50.1-101 0.4-0.6 2.8-4.9 5.3-9.7 23.4-43.7 55.1-94.3 83-132.3 37.7-51.4 86.9-104.5 139.7-150.6 45.3-39.6 115.2-88.4 165.5-115.4 5-2.7 12.6-6.8 17-9.2 13.6-7.4 35.5-18.4 45.5-22.9 10-4.5 11-4.9 9.5-3.6zm-1.5 84.7c0 1-18 8.8-28.9 12.4-19.3 6.5-43.9 10.8-71.1 12.5l-8.5 0.5 6.5-1.5c3.6-0.9 20.7-4.6 38-8.4 24.3-5.4 50.9-12 63.8-15.9 0.1-0.1 0.2 0.1 0.2 0.4zm-37.1 40c-0.9 0.8-33.3 11.5-42.4 14-11.9 3.2-38.8 8-55.5 10-17.6 2-21.6 1.8-12-0.5 20-4.8 105.9-23.6 108.9-23.9 0.8 0 1.2 0.1 1 0.4zm-252.4 23.2c-0.9 5.3-3.1 14.2-5 19.7-3 9.3-3.3 9.8-3.4 5.9-0.1-6.3 4.3-25.8 8.1-35.3 1.9-4.6 2-0.2 0.3 9.7zm144 53.8c-0.5 0.2-12.9 2-27.5 3.9-22.8 3.1-50.2 7.2-60.5 9.1-2.2 0.4-2.6 0.3-1.4-0.4 4.9-3.1 40.1-10.2 61.9-12.4 4.8-0.5 28.7-0.6 27.5-0.2zm-43.5 39.4c-12.4 2.7-32.8 7-45.5 9.6-12.6 2.6-27.3 5.8-32.5 7.1-16 4-14.8 2.9 4.2-4 22.6-8.2 38.4-11.7 67.8-15.1 29.8-3.5 31.1-2.9 6 2.4zm-211.3 32.3c-0.8 11-7 40.8-8.3 39.5-0.9-0.9 3-28.9 5.1-37.3 1.4-5.2 2.5-9.6 2.5-9.9 0-0.3 0.3-0.5 0.6-0.5 0.4 0 0.4 3.7 0.1 8.2zm-19.7 17c-0.5 4.2-1.6 14.3-2.5 22.5-2.2 21.2-3.6 25-3 8.8 0.4-12.3 2.3-27.4 4.6-35.9 1.5-5.7 1.8-4.1 0.9 4.6zm166.9 34.2c-0.2 0.2-6.5 2.1-13.9 4.1-31 8.5-71.5 23.2-91.2 33.1-3.7 1.9-6.8 3.1-6.8 2.7 0.1-1.2 11.7-9.6 19.8-14.3 20.2-11.6 43.7-19.2 70.7-23 7.7-1.1 15.1-2.1 16.5-2.3 4-0.7 5.4-0.7 4.9-0.3zm-205 44.6c0 6.3-0.4 13.3-0.8 15.5-0.6 2.7-0.9-1.6-0.9-13.5 0-10.6 0.3-16.7 0.8-15.5 0.5 1.1 0.9 7.2 0.9 13.5zm188.1-10.3c-4.1 1.3-15.4 4.7-25 7.4-31.3 8.9-61 19.4-74.5 26.1l-4 2.1 2-2.2c2.6-2.9 16.5-11.3 26.7-16.1 14.6-6.8 34.9-12.4 61.3-17 19.9-3.4 23.1-3.5 13.5-0.3zm-266 348.3c3.5 3.5 2.5 9.2-2.1 11.5-4.2 2.2-8.3 1-10.2-3.1-2.2-4.5-5.1-4.5-7.8 0.1l-2.1 3.5h-9.6c-5.4 0.1-12.8 0.3-16.7 0.5-3.8 0.2-13.3 0.1-20.9-0.2-11.7-0.5-14.2-0.9-15.8-2.5-2.5-2.5-2.3-6.4 0.7-9.3l2.4-2.5h40.1c38.7 0 40.1 0.1 42 2zm-60.5 34.1c2.6 2.1 2.7 2.4 2.3 11.1-0.3 8-0.6 9.2-2.7 10.9-2.8 2.2-13.7 2.7-16.3 0.6-3.4-2.5-4.2-9.9-2.2-19.4 1-5.2 13.6-7.3 18.9-3.2zm38.1 46.9c24.3 1.2 56.2 5.5 58.6 7.8 0.4 0.4-15.4 0.8-35 1-46.5 0.4-69.9 2.9-83.6 9.1-8.6 3.8-10.2 8-12.1 30.9-2 24.1-5.5 49.8-7.2 52.6-0.8 1.2-2.8-5.6-4.7-15.9-2.3-12.2-3.6-28.4-3.6-45 0-13.2-0.2-15.4-2-18.3-1.6-2.6-2.6-3.2-5.5-3.2-2.8 0-3.7 0.5-4.8 2.7-2.2 4.4-2.5 6.6-4.2 27.8-2.2 29-4.6 51.8-5.6 53.5-0.5 0.9-0.9-16.2-0.9-39.6 0-43.7 0.3-46.8 4.9-53.3 3.1-4.2 13.1-8.9 21.6-10 9.5-1.2 61.8-1.3 84.1-0.1zm26.4 123.7c34 1.2 13 2.2-48 2.2-59.8-0.1-68.4-0.6-47.5-2.8 9-1 62.3-0.7 95.5 0.6z" />
    <path
      d="m350.4 650c-6.4 2.6-29.6 31.1-27.2 33.5 0.3 0.3 2.4-0.2 4.8-1 6-2.1 13.8-1.9 17.7 0.5 6.8 4.1 6.8 4.1 7.1 48.5 0.4 45.7-0.4 54.4-6.5 70.1-0.3 0.8 0 1.4 0.7 1.4 2.2 0 13.1 5.2 23.6 11.2 5.6 3.2 10.5 5.8 11 5.8 0.4 0 3.9-1.9 7.7-4.1 7.6-4.5 19.8-15.6 24.2-21.9 1.6-2.3 3.1-3.7 3.5-3.3 0.4 0.4 1.9 4.6 3.4 9.3 1.5 4.7 4.8 12.5 7.4 17.5 4.2 8.1 4.6 9.7 4.7 16 0 6-0.5 8-3.2 13.5-1.8 3.6-4.3 7.8-5.6 9.4l-2.3 2.8-6.4-4.6c-10.9-7.9-24.3-16.7-29-19.1-13-6.6-32.7-9.2-47-6.1-21.7 4.6-38.5 20-42 38.5-5.3 28.3 9.8 50.8 38 56.7 21.6 4.5 43.1-3.9 67.6-26.6 4.1-3.9 8.2-7 9-7 0.8 0 3.2 0.9 5.3 2 10.8 5.5 45.8 18.1 62.4 22.5 3.7 1 6.7 2.1 6.7 2.5 0 1.4-36.1 22.2-52 29.9-25 12.1-51.5 20.1-66.9 20.1-6.6 0-4 1.6 5.8 3.6 11 2.2 32.2 1.5 46.6-1.6 24.4-5.1 55.8-17.8 86.5-34.9 16-8.9 19-10.2 22-9.7 1.9 0.2 11.6 1.8 21.5 3.5 28.9 4.9 41.7 6.2 64.1 6.8 50.4 1.3 79.3-5.8 95.5-23.5 7.3-8 9.2-12.8 9.3-23.2 0.1-7.4-0.3-9.3-2.7-14.2-7-14.2-23.9-21.4-52.9-22.5-24.2-0.9-46.9 3.4-74.1 14.1-16.6 6.5-26.9 11.5-50.3 24.2-11.5 6.3-21.5 11.4-22.1 11.4-1.7 0-28.9-8.9-37.3-12.2-17-6.7-44.9-20.1-44.2-21.2 0.4-0.6 4.9-6.8 10.1-13.6 12.8-17 15.6-23 15.6-33.6 0-7.8-0.2-8.7-4.8-17.5-9.7-19.3-9.1-13.8-9.7-77.9l-0.5-56.5-2.7-5.7c-1.4-3.1-3.5-6.1-4.5-6.6-2.6-1.4-8.3 1.3-15.5 7.4-3.1 2.7-8.4 7.1-11.7 9.9-3.3 2.7-6 5.2-6 5.5-0.1 0.3 1.9 1.6 4.4 2.9 7.7 4.1 8 5.9 8 44.1 0 30.7-0.1 32.9-2.2 39.5-6.8 21.4-21.5 28.1-30 13.7l-2.8-4.7-0.5-49c-0.5-48.6-0.5-49-2.8-53.3-4.4-8.2-21.6-24.4-25.6-24.1-0.6 0-2 0.4-3.2 0.9zm2.4 209.1c4 1.1 10.1 3.3 13.5 5 11.5 5.7 32.7 18.4 32.7 19.5 0 1.7-9.6 8.6-16.8 12.3-8.4 4.2-16.1 6.1-25.4 6.1-18.2 0-33.1-6.7-39-17.7-4.9-9.1-4.6-16.3 1-21.5 7.3-6.8 17.7-8 34-3.7zm325.1 23c16.6 2.6 24.5 10.6 19.7 19.7-6.3 12.1-27.9 18.2-64.6 18.2-9.6 0-22.7-0.5-29-1-13.7-1.2-40.4-5.5-45.7-7.4l-3.8-1.4 6-2.7c45.1-20.3 89.5-30 117.4-25.4z" />
    <path
      d="m654.3 654.8c-2.6 2.1-9 7.8-14.2 12.5-5.2 4.8-9.7 8.7-10.1 8.7-0.4 0-4-4-7.9-8.9-7.4-9.3-12.1-13.1-16.3-13.1-4.1 0-12.5 7.1-21.4 18.2-6.1 7.5-6.7 9.2-2.8 7.8 5.1-2 9-1.2 11.9 2.2l2.7 3.1-0.5 41.6c-0.4 45.3-0.7 48.2-6.6 60.3l-2.8 5.8 6.6 3.7c8.8 4.8 17.2 10.9 24.8 17.7 3.3 3.1 6.5 5.6 7.1 5.6 2 0 15.5-10.4 24-18.5 6.4-6.1 9.7-10.1 11.6-14.1 1.5-3.1 2.5-5.8 2.2-6.1-0.2-0.2-2.8 1.3-5.6 3.3-4.3 3.1-6.3 3.9-11.1 4.2-8.3 0.6-13.7-2.6-17.6-10.5l-2.8-5.8-0.3-30.8c-0.5-40.1 0.6-46.5 8.6-54.3 4.4-4.3 7.4-5.1 10.7-3 3.5 2.3 4.7 7.3 5.4 24.1l0.6 15 5.8-11.1c7.5-14.4 14-22.9 23-30 3.9-3.2 7.3-5.8 7.4-5.8 0.8-0.4-24.8-25.6-26-25.6-0.8 0-3.7 1.7-6.4 3.8zm-148.8 7.3c-7.1 5-17.1 11.3-22 14-5 2.6-10.4 6.2-12 7.9l-3 3.1-0.5 45.7c-0.5 42.7-0.7 46-2.5 50.6l-2 4.9 8.5 4.3c10.2 5.2 27.7 16.5 34.3 22.2 2.7 2.3 5.2 4.2 5.7 4.2 2.3 0 43.1-27.3 47-31.5l2.5-2.7 0.3-50.6c0.3-56 0.3-55.6-6-62.1-3.7-3.7-17.1-12.8-24.5-16.5-8.7-4.4-10.9-3.8-25.8 6.5zm9 21.9c6.9 3.3 13.9 9.3 16.1 13.6 1.8 3.6 1.9 6.9 2.2 48.7 0.3 49.2 0.5 48-5.6 44.2-4.2-2.8-20.3-15.5-24.4-19.4l-3.8-3.5v-41.1c0-46.8-0.1-46.2 7.1-45.2 2.1 0.3 5.9 1.5 8.4 2.7zm218.8-24c-6.1 3.8-17.2 10.1-24.6 14.1-7.5 3.9-14.8 8.4-16.4 10.1l-2.8 2.9-0.6 44.2c-0.6 44.2-0.8 47.7-4.4 56.9-0.5 1.2-0.2 1.8 0.6 1.8 0.7 0 7 3.4 14 7.6 11.4 6.9 16.8 10.7 28.2 19.7l3.6 2.9 4.8-3.3c6.6-4.4 30-28.1 34.6-35.2 3.4-5.1 6.3-11.7 5.1-11.7-0.2 0-2.9 1.6-6 3.6-3.1 2-8.6 5-12.3 6.8-5.7 2.7-7.7 3.1-14.6 3.1-6.7 0-8.7-0.4-12.4-2.5-7.5-4.2-8.5-6.5-8.9-19.2-0.4-13-2.5-10.3 17.8-24 16.5-11.1 30.8-21.7 33.5-24.8 1.4-1.5 2-3.6 2-6.9-0.1-4.1-0.9-5.7-8.3-16.1-4.7-6.5-11-17-14.5-24.2-3.4-7-6.4-12.7-6.7-12.7-0.3 0-5.5 3.1-11.7 6.9zm-3.8 27.4c11.1 11.8 15.2 26 9.7 33.6-1.9 2.6-15.8 13-17.3 13-0.5 0-0.9-11.1-0.9-25v-25h2.6c1.7 0 3.8 1.2 5.9 3.4zm-438.1-17.7c-11.4 12.9-26 27.1-42.2 41.1-7.8 6.8-16.2 14.9-18.7 18l-4.6 5.7 5.3 4.8c2.9 2.7 12.5 10.7 21.3 17.9 8.8 7.2 22.7 19.9 30.8 28.1 14.6 14.7 14.8 14.9 18 14.1 2.3-0.7 3.7-2 5-4.7 1.6-3.2 1.7-4.4 0.7-9.1-2.1-10.4-8.8-18.3-33.1-39.3-10.1-8.7-17.9-16.9-17.9-18.9 0-0.5 5.5-4.8 12.3-9.6 21-14.8 33.7-26.8 37.3-35.5 2.2-5.1 1.7-10.9-1.3-16.4-1.4-2.7-3.2-4.9-3.9-4.9-0.7 0-4.7 3.9-9 8.7zm510.6-0.7c-3 3-6 9.8-6 13.8 0 9 7.2 15.7 37.3 34.4 11.2 7 20.9 13.4 21.6 14.1 1.5 1.8 0.1 2.9-12.4 10.2-22.7 13.1-35.4 23.6-40.2 33-6.3 12.5-3.7 27.5 4.7 27.5 3.3 0 5.3-2.1 8.1-8.5 6.6-15.1 17.6-26.6 39.5-41.2 16.6-11.1 20.4-14.8 20.4-19.6 0-6.3-3.8-10.7-15.5-18.5-27.4-18.2-38.5-27.8-47.2-40.9-4.3-6.5-7-7.6-10.3-4.3z" />
  </symbol>

</svg>